P3 63 58 255
253 255 251 253 255 251 253 255 252 254 255 254 255 255 255 255 252 253 255 251 253 255 249 252 244 244 255 244 243 255 255 248 253 255 249 252 255 249 252 255 251 253 254 252 255 255 252 253 255 252 253 253 253 255 248 250 255 243 245 255 253 247 255 255 247 251 255 248 251 255 251 252 244 249 254 243 249 255 250 252 255 251 249 255 236 239 255 225 239 255 232 243 255 246 254 255 223 238 255 232 243 255 240 249 255 241 252 255 236 248 255 230 244 255 236 245 255 244 249 255 250 255 250 252 255 249 254 255 253 255 248 251 250 244 255 246 246 255 253 254 255 254 255 253 255 249 252 255 252 253 254 255 254 254 255 253 251 254 255 248 251 255 248 251 255 254 252 255 255 252 253 254 255 254 254 255 253 254 255 253 251 254 255 253 253 255 255 249 252 251 253 255 254 255 254 254 255 254 255 255 255 253 254 255 253 254 255 254 255 254 254 255 254 250 252 255 246 247 255 253 251 255 255 251 253 255 252 253 255 254 254 250 252 255 246 250 255 251 253 255 251 253 254 252 255 252 253 255 255 250 252 255 247 249 253 251 253 255 254 255 253 253 255 251 253 255 251 250 254 247 255 254 254 255 250 249 255 252 251 255 254 246 251 255 248 255 244 249 255 248 248 255 249 251 255 236 242 255 237 246 255 242 248 250 251 255 251 255 251 254 255 252 255 252 253 250 252 255 237 248 255 243 249 255 251 252 253 255 252 253 255 250 252 255 254 254 255 254 254 255 254 254 253 254 255 251 254 255 251 254 255 253 254 255 255 254 254 255 254 254 255 255 255 254 255 254 251 254 255 253 254 255 255 254 254 255 251 253 250 251 255 254 252 255 255 252 253 255 252 253 251 252 255 251 253 255 254 255 253 253 255 251 253 255 252 253 255 255 250 252 255 251 252 255 255 254 254 254 255 254 254 255 253 251 255 254 253 254 255 253 255 251 252 255 250 253 255 251 247 255 254 244 249 255 247 254 255 253 255 252 252 255 250 252 255 249 253 255 252 255 255 253 255 252 249 255 249 248 255 253 250 255 251 247 255 241 247 255 253 250 255 254 251 255 239 247 255 230 242 255 233 244 255 248 249 254 255 253 255 248 251 255 239 247 251 249 255 240 253 255 249 255 251 253 255 251 255 252 253 255 246 253 251 254 255 253 254 255 254 252 255 254 252 255 253 254 255 254 255 253 253 255 252 254 255 253 255 254 254 251 252 255 248 251 255 250 252 255 253 253 255 255 254 254 255 254 254 255 255 255 251 252 255 251 250 255 251 250 255 254 252 255 254 255 254 254 255 253 253 255 251 252 255 250 253 255 251 251 254 255 250 252 255 253 254 255 254 255 254 253 255 252 253 255 251 253 255 251 253 255 252 253 255 250 255 255 255 248 248 255 255 252 253 255 251 251 255 252 252 247 247 255 238 242 255 246 247 255 238 240 255 4 0 9 4 0 12 0 0 12 0 3 8 4 0 11 0 15 7 0 31 15 0 38 19 0 29 14 0 14 7 239 247 255 248 255 254 246 250 254 251 250 255 255 248 251 255 252 252 251 255 248 250 255 246 245 252 253 248 246 255 248 253 255 250 252 255 254 252 255 255 251 253 255 254 254 254 255 253 253 255 251 254 255 253 255 255 255 248 250 255 246 249 255 250 250 255 255 252 253 255 254 254 254 255 254 254 255 254 253 254 255 246 249 255 248 250 255 253 253 255 255 254 254 254 255 253 254 255 253 253 255 252 253 255 252 254 255 253 253 255 255 254 255 254 255 254 254 255 252 252 255 252 252 250 252 250 255 255 253 255 248 251 255 245 254 255 245 254 255 246 249 255 251 248 254 252 254 5 0 10 6 0 15 3 0 16 1 0 12 90 159 252 34 138 255 37 147 254 59 170 249 19 145 250 62 191 255 34 218 227 35 255 240 28 255 244 54 224 225 0 35 17 0 26 13 0 30 15 0 26 13 251 255 251 255 243 248 255 248 248 251 255 252 246 250 255 255 248 253 246 251 255 250 252 255 253 254 255 255 252 253 255 254 254 254 255 254 254 255 254 254 255 254 251 253 255 250 252 255 252 251 255 255 251 255 255 252 253 255 255 255 253 255 254 255 254 254 254 255 254 253 254 255 248 252 255 248 252 255 253 255 255 254 255 254 255 254 254 255 254 254 253 253 255 255 255 255 254 255 254 254 255 253 254 255 254 248 251 255 241 247 255 239 247 255 255 252 253 255 245 250 255 244 249 245 245 255 248 252 255 0 14 7 0 22 15 127 201 253 113 189 249 119 192 249 101 185 255 35 148 255 0 136 255 0 148 255 12 161 255 0 154 255 0 192 245 0 240 255 0 255 254 0 255 252 4 253 255 39 229 228 47 204 203 42 200 203 50 196 197 0 42 21 0 14 7 246 250 255 243 248 255 255 252 253 255 245 249 250 251 255 251 253 255 254 255 253 254 255 253 255 254 254 255 251 253 255 252 253 248 251 255 246 250 255 251 253 255 255 252 253 255 251 253 255 252 253 253 254 255 251 254 255 255 251 253 255 254 254 254 255 253 251 255 255 246 252 255 246 251 255 251 254 255 253 254 255 250 250 255 246 247 255 250 251 255 254 255 254 254 255 253 253 255 254 241 248 255 230 242 255 241 248 255 248 249 253 254 255 254 253 255 254 0 17 8 0 33 16 87 211 235 59 205 242 58 208 255 67 201 255 75 193 255 48 192 255 24 179 255 7 176 255 3 186 255 0 214 255 0 207 246 0 223 248 0 241 254 0 246 255 0 245 255 0 246 255 3 252 255 5 239 235 13 230 231 14 225 227 17 214 215 40 198 201 0 35 17 0 9 7 255 252 253 255 252 252 255 247 251 255 255 255 252 255 252 253 255 252 255 254 254 255 247 251 255 248 251 246 250 255 246 250 255 254 255 254 255 252 253 255 251 253 255 254 254 250 252 255 250 253 255 251 252 255 253 254 255 253 254 255 251 254 255 250 253 255 250 253 255 251 254 255 250 252 255 246 249 255 246 249 255 250 251 255 255 255 255 254 255 253 254 255 253 253 255 252 253 255 252 254 255 253 250 253 255 237 248 255 0 22 11 127 230 235 77 230 249 36 224 255 23 219 255 27 222 255 29 220 253 15 204 242 6 204 240 4 214 238 10 229 243 4 234 245 0 234 250 15 242 249 5 251 253 10 249 255 3 223 238 4 209 236 0 218 242 0 238 252 0 240 253 0 228 241 0 230 235 0 241 232 0 237 229 24 208 211 57 156 163 0 22 11 240 255 254 255 245 250 254 255 254 250 255 254 250 255 254 255 254 254 255 245 250 255 247 251 251 252 255 248 251 255 254 255 254 255 254 254 255 252 253 255 255 255 251 254 255 251 253 255 253 254 255 248 250 254 248 251 255 250 251 255 255 255 255 255 254 253 252 253 254 251 252 255 255 253 255 255 252 253 255 252 253 255 250 252 255 251 252 255 252 252 255 252 252 254 255 250 251 251 254 0 6 6 0 22 16 93 199 229 73 227 249 49 236 255 38 232 255 17 232 251 20 227 250 20 227 250 15 229 250 6 233 246 8 244 249 12 251 254 3 245 252 0 236 250 19 252 247 13 255 251 8 255 255 2 232 246 6 209 246 0 188 240 0 194 255 0 196 248 0 199 234 0 212 227 0 236 237 0 238 231 6 229 228 30 209 207 46 184 181 0 52 26 255 254 254 254 255 253 246 251 255 246 250 255 254 251 255 255 248 251 255 247 250 255 254 254 253 254 255 253 254 255 255 255 255 255 254 254 255 255 255 255 255 255 255 255 255 255 252 252 250 251 255 250 252 255 255 255 255 255 255 253 255 254 254 250 249 255 255 251 253 255 249 252 255 249 251 255 244 244 255 251 253 252 251 255 239 242 254 3 0 7 5 0 10 3 0 17 133 186 243 95 189 255 55 192 255 21 217 253 37 235 255 40 246 255 35 244 255 21 235 253 15 235 254 12 239 255 4 248 254 0 249 255 0 243 255 0 238 252 0 231 250 0 244 255 0 243 252 0 238 254 0 227 255 13 185 255 16 163 255 10 154 255 6 155 255 18 165 255 11 197 255 5 195 234 0 189 211 0 202 215 1 218 225 1 208 202 20 207 194 0 15 7 244 252 255 246 250 255 247 247 255 251 250 255 255 251 253 255 254 254 255 254 254 255 254 254 251 253 255 248 251 255 251 253 255 255 254 254 255 252 253 255 252 253 255 248 251 255 252 253 251 253 251 253 255 251 253 255 251 251 253 251 246 247 255 255 249 254 255 248 251 255 252 252 254 255 253 0 10 5 0 14 7 0 19 16 104 174 248 63 155 255 60 150 251 53 162 255 44 167 255 0 190 244 0 219 243 0 244 255 7 253 255 8 249 253 1 238 250 0 236 251 0 244 255 0 248 255 0 248 255 0 245 255 0 240 252 0 233 249 0 244 255 0 219 243 0 197 248 4 171 255 0 158 255 2 147 255 0 144 255 0 145 255 0 150 255 14 158 255 19 159 243 19 157 231 0 160 212 0 195 218 0 217 214 4 215 199 73 160 155 0 21 10 245 251 255 255 248 251 255 252 253 253 255 255 254 255 253 254 255 254 255 252 253 251 252 255 246 250 255 248 251 255 255 252 253 255 251 253 255 252 253 255 251 253 255 253 255 254 255 254 251 255 247 251 255 248 253 255 252 247 249 255 236 244 255 236 246 255 0 22 11 0 35 17 109 221 225 90 218 234 85 208 255 41 156 255 0 140 255 4 154 255 9 166 255 0 194 246 0 218 245 0 240 253 0 249 255 0 250 255 3 248 255 1 249 254 0 244 253 0 246 255 0 247 255 7 252 255 13 255 253 13 252 250 12 247 250 15 254 255 0 206 240 25 168 255 8 140 250 3 131 248 4 140 253 1 143 253 0 145 255 0 145 254 3 141 251 0 120 231 3 118 228 8 138 233 0 160 219 0 197 214 5 217 208 31 180 182 0 38 19 239 249 255 255 251 253 255 254 254 246 255 252 249 255 255 255 255 255 255 251 253 253 253 255 248 251 255 250 252 255 255 252 253 255 249 252 255 252 253 253 255 251 248 255 254 246 253 255 253 255 252 252 255 250 254 255 248 241 248 255 0 17 9 0 36 18 74 218 226 50 239 244 31 248 255 3 226 244 10 218 255 12 191 255 0 177 245 0 220 253 0 220 242 0 233 248 4 246 253 0 238 239 0 239 240 0 239 240 0 236 236 1 235 237 2 234 237 0 231 235 0 231 235 0 232 235 4 235 232 5 239 233 7 242 238 6 241 230 0 196 219 16 170 243 3 129 234 0 119 231 0 128 234 3 132 235 1 127 234 0 126 236 0 123 229 1 121 231 0 111 225 7 125 234 11 152 238 8 186 232 0 199 207 0 191 196 40 177 179 0 27 13 251 255 254 253 255 252 253 255 254 248 251 255 250 251 255 255 252 253 255 255 255 251 253 255 251 253 255 255 252 253 255 251 253 255 254 254 253 255 251 252 255 252 251 253 255 246 249 255 234 240 253 0 8 6 0 26 15 90 210 230 29 206 223 11 236 247 0 249 255 0 250 255 0 245 255 0 236 249 5 224 241 18 218 231 9 241 231 7 243 235 2 241 236 5 241 239 4 231 230 5 220 222 4 213 218 6 215 222 0 216 221 6 223 224 8 225 222 6 226 224 1 223 228 0 223 227 0 229 231 0 234 231 0 235 231 0 206 217 0 167 205 9 168 239 0 148 231 0 135 225 11 127 224 12 117 221 8 123 228 6 133 232 5 131 228 5 119 224 1 117 225 5 141 237 15 181 247 0 182 216 0 210 209 14 191 192 53 168 164 0 25 12 246 255 254 255 255 255 255 251 254 254 252 255 253 254 255 254 255 254 254 255 254 255 255 255 255 254 254 255 254 254 255 255 255 237 246 255 254 255 253 255 250 248 230 242 255 0 3 13 83 180 245 75 201 255 15 210 232 5 238 248 0 247 255 0 247 255 0 244 244 0 236 239 0 230 237 3 227 230 15 233 228 11 229 221 1 226 222 0 230 231 0 219 222 7 216 223 8 206 216 6 199 214 0 198 214 0 209 213 0 220 218 4 219 208 1 219 211 0 218 219 0 212 215 0 213 214 0 213 209 0 208 204 0 206 204 0 197 204 0 183 214 9 178 234 12 156 233 8 131 220 0 113 213 0 114 214 0 125 219 2 132 225 1 126 222 0 116 215 2 131 231 15 168 244 0 165 214 0 217 212 2 204 200 22 189 187 0 43 21 232 246 255 255 246 249 255 245 250 255 247 248 253 255 255 253 255 254 255 255 255 255 254 254 255 255 255 251 253 255 250 252 255 224 231 255 255 247 251 255 248 247 1 0 7 63 152 237 0 147 255 0 195 249 0 239 253 4 251 255 0 243 239 0 228 233 8 215 219 17 214 215 8 215 219 0 226 229 0 234 234 0 198 215 0 203 219 0 207 219 0 210 221 5 206 217 0 193 210 9 203 231 0 207 234 0 216 224 0 232 227 0 228 213 0 225 214 0 225 223 0 216 222 11 218 222 18 219 217 4 203 207 7 207 198 7 207 196 0 188 196 0 158 192 0 144 209 5 142 226 0 129 223 0 126 224 0 125 220 0 131 225 0 127 220 0 120 219 0 120 218 14 154 230 0 153 201 5 216 207 0 212 205 3 202 201 36 170 175 0 17 8 255 245 250 255 237 246 255 249 252 254 255 253 251 255 255 255 255 255 255 252 253 255 255 255 250 253 255 248 251 255 242 247 255 246 250 255 0 3 7 80 157 234 8 148 254 9 162 255 0 215 238 16 234 226 4 225 226 0 207 218 14 215 218 20 211 200 16 222 214 1 219 226 0 217 223 14 221 218 5 232 224 0 222 213 0 210 212 0 169 188 0 143 201 0 132 212 0 126 211 0 124 208 0 133 213 0 150 204 0 178 193 3 209 204 4 212 202 0 208 202 0 211 205 0 214 203 0 191 196 0 198 206 0 192 197 2 198 204 3 191 195 6 190 194 5 188 202 11 193 221 17 191 235 6 168 227 7 150 225 6 142 225 6 147 227 19 181 243 13 198 234 0 198 214 0 228 228 5 214 207 0 207 202 0 207 209 0 179 191 0 37 18 255 254 252 255 238 246 255 244 249 240 243 255 255 255 253 252 255 250 252 255 250 245 253 255 246 250 255 255 240 247 232 243 255 0 24 19 44 166 251 15 156 255 4 176 245 0 203 218 9 232 228 5 222 222 0 198 201 1 205 204 0 208 201 0 212 207 0 209 211 0 211 213 0 209 204 10 209 200 9 204 192 10 202 200 10 174 196 34 174 220 25 156 213 23 154 212 14 146 205 15 146 203 31 172 213 14 177 191 22 195 190 15 193 189 8 188 193 5 188 196 2 194 199 6 208 204 0 205 201 0 211 210 0 206 200 0 213 208 0 213 206 0 206 206 0 186 194 0 165 184 0 153 189 0 148 193 0 155 201 0 165 204 0 179 214 0 185 209 5 194 209 5 226 227 10 221 223 0 215 217 0 211 210 0 189 198 75 201 221 0 18 14 242 242 254 255 253 255 250 252 255 248 250 255 252 250 255 254 254 254 253 255 252 254 255 253 255 233 243 0 5 10 51 173 252 0 146 255 5 152 242 17 176 225 0 189 197 0 209 203 0 212 213 0 201 200 0 209 206 0 212 206 0 206 203 0 196 201 4 196 202 4 199 199 26 185 182 33 187 180 35 179 175 42 169 178 35 145 166 25 131 155 23 133 155 24 134 156 25 129 153 32 136 154 39 152 156 43 159 155 38 157 158 30 147 159 24 150 167 20 154 170 25 198 188 18 199 193 7 200 197 0 205 200 0 213 202 0 214 203 0 212 203 0 203 205 2 186 196 3 178 192 0 173 185 0 178 181 0 192 195 0 192 198 0 190 197 6 192 201 6 213 217 2 209 217 0 213 220 0 215 214 0 204 212 36 204 237 58 161 205 0 23 20 0 13 6 243 251 255 241 248 255 239 240 255 248 247 255 254 255 253 253 255 252 255 251 250 0 3 12 15 131 243 0 136 242 0 154 233 1 166 195 7 195 199 0 203 202 0 206 204 0 205 207 0 202 201 6 199 196 22 197 193 26 180 178 24 163 166 25 156 163 20 128 139 22 129 136 21 119 123 47 123 130 40 104 114 47 109 117 55 122 126 59 127 130 64 118 124 67 113 120 58 107 108 77 126 124 71 121 125 75 128 139 69 133 148 57 138 149 61 161 160 32 140 137 49 171 166 42 179 170 30 185 178 28 199 193 13 201 199 3 198 200 0 197 199 3 200 198 10 204 196 4 196 187 0 186 175 0 192 185 0 191 182 0 198 192 0 197 204 0 199 206 3 217 223 0 224 230 0 215 223 3 197 231 26 177 231 39 153 209 78 165 203 0 22 16 231 245 253 255 251 253 255 251 253 255 255 255 252 254 252 0 20 14 95 166 233 26 132 246 0 123 219 0 157 213 0 168 173 12 200 195 2 202 204 0 197 201 0 189 199 11 178 182 19 157 154 22 130 120 33 120 113 44 120 123 40 103 115 44 102 122 58 117 133 76 126 138 85 120 130 22 46 54 61 87 92 71 102 105 78 106 108 99 117 122 106 115 121 21 30 33 78 88 91 78 89 93 83 99 103 76 105 108 92 134 136 56 76 89 27 56 63 89 132 131 88 145 141 74 150 147 58 154 159 43 162 172 20 169 177 11 190 194 8 204 203 4 204 199 11 207 201 12 206 198 0 186 173 0 195 181 0 200 184 0 179 181 0 188 190 0 204 201 2 221 218 0 218 223 0 199 215 21 197 238 9 161 227 18 146 217 62 147 201 0 11 8 255 255 255 255 249 249 250 250 255 250 251 255 0 24 16 89 187 245 33 166 238 0 152 213 0 163 183 0 184 182 7 201 193 6 200 197 5 178 185 2 142 152 4 109 119 40 117 122 69 124 125 86 128 128 77 114 119 47 83 95 69 87 109 62 81 100 70 90 103 83 93 102 28 33 38 0 4 2 0 8 5 0 7 4 0 6 4 0 2 3 0 4 3 0 8 6 0 4 2 0 5 3 0 6 3 0 11 5 2 0 4 0 1 5 0 4 2 0 8 4 0 12 6 88 127 136 71 125 137 0 74 84 35 143 154 23 164 174 16 187 192 9 199 198 6 203 198 8 209 200 8 212 202 0 189 173 0 178 176 0 183 178 5 192 183 2 199 189 7 209 202 5 205 207 2 190 209 7 183 230 0 149 220 1 119 199 59 128 189 0 2 7 239 247 255 251 252 255 253 253 255 0 25 17 86 213 244 15 196 215 0 186 185 0 181 174 0 186 179 13 203 196 3 175 171 0 123 125 38 113 120 65 112 123 85 122 135 84 114 128 98 120 133 74 102 111 4 41 46 33 34 54 62 68 84 0 0 3 0 5 2 0 4 2 110 127 129 138 165 173 126 156 168 120 150 162 129 161 172 118 157 166 120 158 166 126 160 166 137 162 166 128 151 159 126 150 162 119 150 160 128 156 165 131 158 164 133 156 166 124 148 159 0 10 7 0 7 4 0 8 4 99 138 149 88 159 170 46 156 166 36 191 192 22 200 193 13 200 193 7 200 199 1 191 197 9 199 192 3 191 182 1 186 176 1 182 173 1 184 179 0 179 173 2 192 199 0 179 193 7 178 222 2 148 223 1 118 202 47 125 190 0 11 10 248 255 253 254 255 253 0 39 19 64 212 218 12 200 191 0 199 179 0 198 179 5 192 179 11 176 171 0 124 125 40 113 119 90 125 133 60 84 95 50 80 92 78 111 126 82 112 124 62 88 93 58 83 81 1 0 4 0 2 3 132 149 157 152 172 172 155 174 173 146 168 175 119 145 162 111 138 159 114 146 165 109 147 163 111 158 172 109 159 173 114 162 171 124 164 171 118 151 165 112 145 164 115 162 173 114 159 168 119 158 167 119 156 167 114 147 164 120 150 165 121 141 154 137 148 158 0 2 3 0 10 5 98 155 161 60 150 152 33 152 150 29 171 172 16 169 182 3 164 183 10 211 197 6 210 200 0 198 193 0 180 179 0 167 168 0 168 172 0 176 178 10 197 197 3 184 193 0 168 202 0 153 207 6 147 207 68 163 186 0 23 11 252 255 249 0 52 26 68 208 207 22 192 190 0 188 172 0 202 180 13 194 178 0 118 109 21 95 107 79 119 134 89 118 129 95 125 131 42 75 80 1 41 44 0 35 37 9 28 27 0 4 1 123 151 161 131 161 173 140 172 185 143 177 183 149 178 183 137 160 174 123 144 170 119 140 170 123 144 170 125 150 171 122 157 176 120 161 178 125 171 181 122 162 171 126 165 177 121 160 178 120 154 175 129 160 176 132 164 175 131 163 176 111 145 165 105 139 163 109 139 161 121 151 166 127 155 164 143 169 174 0 8 4 0 13 7 17 65 70 48 125 135 23 132 150 7 139 162 12 205 192 3 208 201 0 207 208 0 181 178 0 166 169 0 161 167 0 167 170 0 173 169 4 180 175 1 193 196 0 195 202 0 189 199 21 179 184 0 39 19 246 252 255 0 38 19 73 177 182 16 162 177 0 189 186 0 195 177 7 176 163 0 92 82 37 92 108 76 109 129 87 119 132 92 125 128 85 110 108 78 100 96 62 81 77 0 7 3 145 146 150 135 173 184 130 170 183 130 170 185 137 178 187 138 178 185 132 165 178 125 153 174 128 152 175 132 154 173 128 152 169 129 154 173 125 153 172 133 166 179 129 167 175 133 171 182 121 160 177 124 145 171 136 160 177 147 171 183 144 173 184 126 158 176 119 155 178 115 158 180 113 158 176 117 157 170 124 153 164 129 142 152 117 121 134 0 0 4 134 166 177 86 150 165 34 124 140 18 169 166 19 193 190 4 200 199 5 208 207 3 193 189 8 181 176 5 171 168 4 171 169 0 169 167 11 192 183 9 204 188 9 218 199 7 202 193 42 173 174 0 14 7 254 255 253 0 25 12 17 162 179 0 181 174 0 195 185 0 154 144 0 85 74 45 108 117 82 119 132 86 114 124 83 104 110 72 83 87 18 20 21 0 1 0 140 156 160 147 170 180 146 180 184 144 174 183 145 176 186 139 178 184 140 189 190 137 187 191 136 184 193 129 175 185 134 179 186 143 182 191 136 162 179 134 157 177 139 164 181 138 170 183 132 169 182 131 166 183 128 172 186 136 175 187 139 174 184 139 170 180 141 177 188 136 178 188 132 177 186 137 179 189 130 163 176 131 155 172 133 151 169 137 153 168 153 173 181 0 10 5 92 128 133 72 111 117 29 116 124 24 138 140 27 183 178 19 205 197 13 206 193 19 197 181 16 179 167 4 166 163 2 166 170 0 169 164 7 193 178 0 203 182 0 213 205 22 181 184 0 22 11 255 235 245 0 16 9 29 167 174 0 199 197 0 198 190 11 173 167 0 81 62 44 101 94 83 117 114 63 84 90 29 47 58 31 39 52 19 21 30 0 2 4 144 167 177 142 186 200 167 178 173 0 6 4 0 6 3 0 11 5 151 192 189 144 193 191 132 185 188 137 192 196 133 188 192 136 181 190 142 169 187 132 150 175 136 155 176 133 159 176 138 171 184 134 165 181 127 191 195 131 185 191 136 177 186 137 172 180 146 176 182 152 185 184 156 186 183 151 182 181 148 175 183 137 167 181 131 166 183 129 171 185 134 174 183 109 142 145 0 7 3 63 70 71 48 90 100 35 103 104 18 123 117 21 176 174 13 197 201 4 188 194 0 173 176 1 167 170 0 162 164 0 161 157 0 179 172 0 193 180 0 210 206 15 180 187 0 27 13 255 247 250 246 253 255 0 40 20 19 192 195 0 202 201 17 197 194 0 90 71 10 52 34 69 91 81 93 122 125 84 110 126 74 94 110 78 95 103 12 34 39 157 187 196 138 173 190 5 6 0 4 2 0 1 0 4 0 3 2 0 13 8 163 193 199 161 191 200 166 202 213 165 203 214 163 196 211 166 184 206 170 182 211 166 180 203 157 180 196 150 179 190 156 180 192 147 200 203 136 180 187 148 178 187 151 168 176 0 4 5 0 4 2 0 7 3 161 183 179 146 186 185 136 186 191 129 182 193 118 169 184 132 173 189 139 167 177 153 169 173 0 3 1 126 165 171 120 164 165 33 100 101 0 97 109 39 175 211 22 172 216 3 163 198 0 157 170 0 174 177 0 163 151 2 169 153 0 186 172 0 195 189 13 173 182 0 25 12 242 255 254 252 255 252 0 14 7 54 159 164 7 186 193 0 185 192 8 138 137 0 36 18 0 21 10 7 55 60 79 118 130 74 102 114 0 12 6 152 187 189 154 182 192 152 168 186 0 6 4 0 0 1 1 0 3 1 0 5 0 0 3 192 200 217 200 204 224 210 218 238 208 225 240 207 224 239 205 215 235 208 213 237 213 223 240 199 221 231 204 226 233 200 217 222 180 203 213 166 188 198 160 173 183 0 0 3 1 0 2 5 0 2 0 0 1 0 12 6 146 191 192 132 190 191 131 188 194 128 172 186 130 158 179 136 158 176 131 152 161 0 10 5 27 70 72 93 127 128 84 124 131 0 57 79 0 74 105 24 139 204 17 155 217 4 168 211 0 170 173 0 169 152 18 173 141 0 176 151 0 192 180 19 178 186 0 24 13 237 250 255 254 255 252 255 252 253 0 19 9 40 162 169 0 166 184 10 166 192 16 139 162 0 60 51 0 24 12 0 16 12 36 50 58 0 6 4 156 184 193 160 182 195 171 184 206 180 197 205 0 0 6 1 0 3 1 0 3 214 226 236 223 227 240 231 226 240 2 0 4 222 232 239 217 236 242 223 239 243 229 241 245 218 236 241 219 240 246 0 6 3 226 229 240 214 226 236 203 215 227 197 209 219 0 0 3 0 0 3 1 0 2 1 0 3 0 2 3 152 176 188 140 175 185 139 179 188 130 169 181 134 172 186 136 166 181 140 167 175 0 10 5 48 73 77 16 36 44 44 72 81 9 63 76 0 57 61 33 134 183 11 133 199 6 154 211 0 171 193 0 162 148 15 170 140 0 180 155 0 198 184 18 185 183 0 21 10 246 250 255 255 252 253 255 249 252 254 255 253 0 28 14 24 165 194 8 191 238 11 187 233 44 169 197 18 81 89 3 19 21 1 0 2 168 170 189 160 172 191 164 186 204 172 194 213 188 211 225 195 208 221 215 223 236 218 232 240 219 238 244 225 230 235 237 233 236 3 0 0 229 241 237 228 251 243 0 15 7 228 244 236 224 247 244 222 248 250 0 3 5 228 224 241 218 235 242 212 230 241 207 229 241 202 222 230 0 7 3 0 7 3 1 0 2 165 167 189 159 161 189 158 166 189 144 166 178 140 183 189 134 186 192 136 183 188 150 183 186 142 160 163 1 0 3 113 120 136 130 153 161 64 113 106 0 55 37 64 164 188 24 138 196 7 144 202 0 152 178 1 158 152 5 169 152 0 178 156 0 200 182 29 197 188 0 25 12 251 255 247 251 252 255 253 243 255 253 255 252 252 255 249 0 0 4 107 142 193 46 171 214 0 215 219 12 214 195 58 169 163 0 3 6 167 174 193 172 208 213 179 216 223 185 198 220 208 214 239 212 220 240 216 226 240 217 230 240 217 239 243 221 246 247 228 251 248 229 252 249 0 11 5 0 10 5 229 251 249 0 8 4 0 10 5 0 10 5 225 252 251 225 252 251 225 250 251 220 242 246 215 236 242 214 236 243 208 230 240 191 213 226 174 197 211 166 190 207 154 179 196 147 172 189 149 174 191 145 171 188 136 162 179 135 165 180 138 168 182 131 161 175 159 148 146 0 4 3 123 163 170 46 96 94 0 38 31 70 159 191 24 170 222 0 189 219 0 182 172 16 164 139 15 158 144 0 170 171 2 190 188 36 172 160 0 21 10 252 255 250 254 250 253 252 250 255 253 255 255 249 255 249 241 245 255 4 0 11 0 23 14 37 171 176 47 179 172 0 31 15 153 178 195 169 189 203 193 231 235 195 225 231 213 221 241 215 223 240 216 225 238 215 228 238 218 237 243 224 249 250 230 255 252 231 255 251 229 253 248 233 255 251 231 253 249 227 249 247 226 250 250 227 254 253 228 255 254 220 251 250 225 255 254 225 250 251 222 248 250 218 239 245 215 237 244 210 232 242 204 226 238 193 216 230 187 209 225 171 193 211 166 191 208 151 176 193 150 176 193 139 165 182 135 165 179 135 165 179 130 160 174 142 140 151 0 6 9 48 92 102 0 51 38 0 88 81 55 191 203 15 175 193 0 166 172 5 161 149 7 164 148 0 170 156 0 188 182 16 183 171 0 49 24 242 255 254 255 251 253 255 251 253 251 251 254 250 252 255 250 252 255 252 246 255 251 245 255 243 249 255 0 11 5 0 15 8 145 177 196 164 195 213 187 224 231 209 246 247 218 238 246 215 219 239 219 236 241 224 242 245 227 248 249 230 253 250 229 253 248 228 253 246 232 255 247 236 255 249 228 253 246 230 254 249 230 255 250 226 255 253 220 251 250 224 254 255 220 255 254 219 255 254 223 250 252 223 250 252 221 246 250 215 237 244 211 234 242 209 231 243 208 228 242 201 222 237 191 213 229 186 208 226 165 189 206 146 170 187 146 173 188 137 167 181 136 166 180 121 152 166 125 138 160 119 140 155 0 38 40 0 59 44 11 156 156 11 194 194 13 196 196 9 163 161 5 147 148 0 168 171 0 188 180 0 192 186 45 171 157 0 31 15 253 255 252 254 242 255 255 251 253 255 255 255 253 253 253 253 253 255 255 252 252 255 254 254 255 247 247 4 0 3 186 183 206 171 179 208 181 206 219 214 251 252 216 249 246 214 235 241 211 222 240 231 252 249 231 253 249 233 255 248 234 255 248 235 255 249 236 255 246 235 255 246 236 255 249 236 255 249 230 254 249 230 255 252 226 255 252 219 251 249 223 255 254 220 255 254 219 255 255 223 254 253 223 250 252 223 251 253 217 243 248 211 234 242 211 233 243 210 230 243 204 224 238 205 222 239 206 227 242 186 208 224 167 190 206 152 178 192 151 178 193 136 166 180 128 158 172 105 139 161 114 141 156 0 15 8 32 105 109 30 168 176 0 182 193 0 183 199 0 157 186 0 139 172 6 161 195 16 186 205 21 167 171 0 32 16 251 255 254 254 255 254 248 246 255 251 248 255 255 254 254 254 255 254 254 255 253 253 255 251 253 255 251 0 9 3 198 204 210 196 200 220 201 206 230 216 228 238 216 241 242 222 252 249 214 243 246 216 240 251 233 255 248 235 255 249 237 255 248 237 255 247 237 255 247 235 255 246 237 255 247 243 255 251 242 255 252 232 254 250 231 255 251 226 255 253 224 255 253 221 255 252 224 254 255 216 255 251 222 255 254 221 253 253 223 255 255 221 247 252 216 238 245 213 234 243 211 230 242 209 224 238 206 222 237 203 220 235 205 222 237 186 207 222 170 193 209 148 174 188 140 170 182 133 163 175 108 152 172 125 153 163 135 159 159 0 20 10 39 137 159 15 163 206 0 161 216 0 147 207 4 143 208 37 157 201 80 173 197 0 21 10 234 244 255 247 246 253 255 254 252 252 252 255 253 251 255 249 247 253 254 255 254 252 255 249 251 255 248 0 11 5 184 220 219 188 233 234 194 228 234 218 230 240 216 218 237 221 231 240 224 255 254 221 253 251 226 254 255 233 255 251 235 255 250 232 252 247 232 252 247 236 254 248 236 253 247 236 253 247 239 254 250 245 254 255 229 248 247 230 252 250 228 253 251 228 255 254 220 253 250 224 255 252 223 255 253 223 255 254 221 254 253 222 254 254 223 251 253 220 241 247 215 233 242 215 229 240 213 226 239 209 222 235 212 226 240 206 222 237 209 229 243 187 210 224 170 195 208 152 182 194 135 165 177 124 159 176 128 155 163 140 164 164 113 153 162 0 21 14 58 143 197 36 134 200 24 129 191 46 139 188 0 22 16 0 4 6 238 238 255 250 248 255 246 249 255 253 254 255 254 255 253 255 252 253 246 247 255 248 252 255 249 255 249 0 9 4 194 206 210 188 219 226 196 248 249 209 254 251 217 236 242 219 222 242 220 230 244 220 249 252 231 255 250 238 254 243 231 251 251 239 253 255 239 253 255 236 254 254 232 247 249 232 246 247 235 245 248 242 252 255 245 251 255 238 248 251 229 247 247 243 251 255 226 249 246 229 255 252 230 255 251 223 254 249 221 255 255 222 255 253 222 255 254 222 250 252 222 243 249 219 236 244 216 229 239 216 228 238 213 223 237 212 222 239 208 222 236 206 222 237 203 223 237 185 208 222 170 195 208 138 168 180 134 158 175 139 162 172 129 163 167 104 151 164 0 22 22 102 138 174 0 1 8 0 7 6 0 15 10 236 248 255 252 251 255 255 247 251 253 248 249 250 252 255 243 246 251 253 255 252 255 253 253 248 250 255 244 252 255 251 255 253 0 3 1 203 204 219 198 206 223 207 230 240 214 246 246 220 238 243 220 230 239 221 241 247 223 254 253 236 253 247 251 255 248 236 248 255 239 247 255 240 247 255 237 247 254 241 247 255 242 247 255 241 245 254 243 248 255 241 245 254 242 248 254 242 250 255 232 250 250 231 253 251 229 252 249 226 252 246 231 255 250 219 255 254 223 255 254 222 254 254 222 250 252 226 248 252 224 241 248 219 230 240 218 226 239 220 228 241 216 225 238 213 223 237 211 226 240 207 227 240 199 221 234 176 201 214 159 184 197 137 160 176 141 169 179 123 160 167 114 157 170 104 139 158 0 1 3 255 249 252 255 249 250 254 255 252 253 255 250 254 255 253 254 255 253 254 255 253 252 255 254 248 251 255 254 255 253 254 255 254 249 251 249 251 254 255 0 6 4 203 212 217 202 208 221 202 205 229 211 215 241 217 224 240 220 238 243 226 253 249 229 255 249 232 255 250 245 254 255 248 249 253 236 245 255 237 246 255 237 245 255 237 244 255 239 244 255 239 244 255 241 243 255 241 245 255 240 245 254 242 248 255 243 249 255 239 252 255 233 255 253 227 252 250 226 253 249 227 255 251 219 255 254 223 255 255 221 253 253 219 245 247 222 240 245 222 235 242 220 230 239 219 227 237 217 223 236 219 226 240 217 226 239 211 224 237 209 224 238 203 225 238 190 215 228 169 194 207 153 176 190 136 166 175 135 172 179 127 156 167 124 137 150 1 0 2 255 252 252 255 252 251 254 255 253 254 255 253 253 255 251 253 255 251 254 255 254 255 254 254 253 255 255 250 253 255 254 255 253 254 255 253 255 254 254 0 0 1 198 218 226 201 228 236 211 225 239 210 211 243 212 214 245 216 239 247 224 255 250 232 255 243 239 255 247 243 252 255 243 249 255 234 244 253 236 246 255 238 246 255 240 246 255 238 242 255 237 241 254 238 242 255 239 245 255 240 247 255 241 248 255 238 247 255 234 250 255 228 255 254 223 254 253 222 254 252 224 255 253 221 254 253 223 255 255 223 250 252 220 246 248 221 239 244 222 234 240 221 228 237 222 227 239 221 226 238 219 225 238 217 226 239 215 227 239 208 223 237 206 226 239 199 221 234 177 202 215 167 182 196 143 174 181 138 175 182 124 146 159 126 131 155 6 0 12 242 245 253 244 249 255 243 249 255 246 250 255 253 255 255 254 255 254 255 251 253 255 249 252 254 255 254 248 251 255 250 254 251 255 254 252 0 0 1 200 209 222 187 222 230 190 235 240 207 234 242 213 218 242 209 216 243 211 240 251 217 255 254 227 255 247 235 255 250 238 253 255 237 246 255 243 249 255 242 249 255 240 249 255 239 246 255 240 247 255 240 246 255 239 246 255 236 246 255 235 248 255 233 248 255 231 251 255 227 252 255 223 255 255 219 253 254 220 254 255 221 255 255 222 254 254 224 251 253 223 249 251 221 242 245 222 238 242 221 231 238 223 229 237 225 230 239 223 228 240 218 224 237 218 226 239 217 229 241 210 225 237 207 227 240 205 227 240 187 209 222 184 190 203 156 179 189 134 175 184 122 157 174 112 127 157 118 124 152 0 0 6 251 254 255 253 255 255 251 253 255 250 251 255 250 251 255 254 252 255 255 252 253 255 254 254 250 252 255 255 255 255 255 254 254 0 0 1 192 210 221 191 229 237 195 238 242 216 238 245 217 224 240 212 222 239 213 243 252 214 253 255 222 255 252 229 255 252 230 251 252 233 249 255 243 252 255 242 252 255 240 250 255 241 250 255 240 247 255 239 248 255 233 250 255 228 247 253 227 249 253 225 253 255 221 253 255 220 254 255 217 254 255 217 254 255 216 251 255 217 251 255 223 249 251 223 249 251 223 244 247 223 241 244 221 233 239 223 232 238 224 230 238 225 230 239 223 228 240 219 225 238 217 225 238 218 230 240 210 225 237 209 224 238 207 227 240 192 214 227 181 190 203 159 181 193 124 166 179 109 157 174 102 138 159 122 137 154 1 0 2 255 252 252 253 255 251 255 254 254 252 251 255 246 247 255 250 252 255 254 255 254 255 254 254 248 251 255 252 249 254 255 252 253 0 3 1 206 231 232 198 228 234 210 232 242 213 220 236 223 227 240 220 233 240 223 249 251 222 255 254 222 255 253 224 255 253 220 252 252 223 252 255 229 252 249 234 255 253 239 254 255 238 251 255 235 253 255 228 249 252 225 250 251 222 249 251 221 253 253 221 254 253 219 255 254 219 255 254 218 253 255 218 253 255 218 251 254 216 250 254 226 247 250 223 241 246 221 238 243 222 238 242 224 236 240 224 233 239 224 230 238 224 229 238 222 227 239 221 227 240 217 225 238 217 229 239 212 225 238 209 224 238 206 226 239 196 216 229 177 206 217 149 179 191 131 168 179 109 158 169 113 161 172 123 147 158 1 0 2 255 248 251 254 255 252 254 255 253 255 254 254 252 251 255 253 254 255 254 255 253 254 255 254 247 251 255 254 252 255 255 251 253 0 3 1 214 235 232 204 225 231 212 221 239 217 219 242 223 228 240 227 247 247 229 252 249 227 252 250 226 255 253 223 255 255 218 252 253 217 252 254 225 252 248 227 254 250 228 255 254 229 255 255 227 252 253 223 250 252 222 253 252 222 254 252 222 255 253 222 255 252 222 255 252 223 255 254 223 255 255 221 253 255 220 246 251 219 245 250 225 242 247 223 239 243 222 234 240 222 234 240 224 233 239 224 230 238 224 230 238 223 228 237 221 226 238 221 229 239 218 226 239 217 229 239 214 227 240 211 226 240 206 222 237 196 216 229 170 215 224 158 190 201 142 166 178 123 158 166 121 161 168 124 151 159 0 1 5 253 251 255 255 255 255 254 255 253 254 255 254 255 254 254 255 252 253 255 255 255 254 255 254 250 254 255 255 254 254 255 248 251 0 0 0 211 228 230 199 221 231 205 217 236 214 223 241 220 238 243 227 255 251 226 255 252 225 252 251 223 250 252 223 255 253 220 255 254 217 254 255 225 255 254 223 255 253 220 252 252 220 252 252 222 254 254 223 255 255 223 255 255 223 255 254 224 255 252 224 255 252 224 255 252 224 255 253 224 255 254 224 249 250 223 241 246 222 239 244 224 236 242 221 233 239 221 231 238 225 234 240 224 230 238 224 230 238 224 230 238 223 228 237 222 227 239 220 228 238 218 226 239 218 230 240 212 225 238 211 226 240 209 224 238 194 210 225 174 212 220 160 191 198 141 164 174 124 146 162 115 137 156 120 139 154 0 4 2 252 254 252 255 255 255 251 253 255 253 254 255 255 255 255 255 251 253 255 251 253 255 254 254 252 255 250 255 253 250 255 247 251 1 0 2 217 230 240 203 226 240 205 226 241 213 234 243 216 248 246 225 255 252 220 255 254 217 250 253 219 245 250 221 252 251 225 255 254 223 255 253 220 254 255 220 254 255 220 254 255 220 252 254 220 252 254 222 254 254 222 255 254 222 255 253 222 255 251 223 255 252 225 255 251 224 254 251 225 250 248 224 245 246 222 238 242 223 235 239 222 232 239 220 230 237 224 233 239 226 235 241 224 230 238 223 229 237 224 230 238 224 229 238 223 228 240 219 227 237 218 226 239 218 230 240 209 222 235 209 224 238 209 224 238 190 206 221 177 198 207 164 189 193 142 165 175 112 132 159 103 120 159 117 129 153 1 8 5 252 255 250 254 255 253 253 253 255 248 251 255 253 254 255 255 252 253 255 247 251 255 248 253 255 253 252 254 255 254 254 255 254 0 3 1 203 216 223 198 217 229 207 229 242 210 233 243 219 241 245 223 242 241 231 250 249 227 251 251 223 249 251 223 250 252 226 253 252 226 251 246 223 255 253 222 255 252 222 255 252 222 255 253 222 255 252 222 254 252 223 255 253 224 255 253 224 255 253 222 253 252 224 254 255 219 247 249 216 237 243 219 239 245 217 234 242 215 233 242 221 227 240 218 224 237 222 227 239 223 228 240 219 224 236 221 226 238 224 229 241 220 228 238 219 227 240 214 226 238 210 225 237 210 229 241 208 230 242 206 228 240 197 221 232 189 213 224 157 195 206 133 170 183 128 161 176 114 141 159 117 139 155 126 139 152 0 0 3 252 253 254 254 255 254 254 255 254 254 255 254 255 255 255 253 254 255 253 254 255 255 255 255 255 254 254 255 254 252 254 255 252 251 254 255 0 4 2 199 217 228 196 218 230 210 232 242 217 239 243 224 245 246 228 249 250 220 245 246 224 249 253 220 248 250 225 252 251 231 255 253 224 255 253 223 255 253 223 254 253 224 255 254 224 251 253 226 253 252 225 250 251 224 249 250 225 250 251 221 247 249 223 245 249 220 239 245 218 235 242 218 231 241 218 230 240 216 228 238 218 227 240 217 226 239 218 226 239 218 226 239 218 226 239 218 226 239 218 226 239 216 228 238 216 228 240 210 225 239 207 227 240 205 225 239 205 227 240 198 222 234 185 210 223 174 203 214 145 183 194 138 175 186 129 159 174 126 153 168 117 137 151 132 144 154 0 0 1 253 254 255 255 255 255 254 255 254 255 255 255 255 255 255 253 254 255 253 254 255 255 255 255 255 253 253 255 255 255 254 255 254 249 254 252 0 5 3 201 218 225 200 221 230 212 233 242 215 235 241 217 236 242 216 237 243 216 239 247 211 238 246 218 245 251 222 250 252 222 249 248 222 244 248 222 244 248 223 241 246 223 241 246 224 241 246 224 241 246 222 239 244 220 237 242 220 237 242 220 237 242 219 232 239 218 229 239 217 225 238 217 224 238 218 224 240 215 221 237 213 225 237 215 227 239 214 226 238 216 228 238 218 230 240 217 229 239 215 228 238 214 228 239 210 228 239 208 227 239 207 229 241 197 221 233 196 221 234 186 215 226 173 202 213 156 185 196 139 176 187 130 163 176 122 152 164 119 141 154 128 143 155 0 3 2 248 251 255 253 254 255 255 255 255 255 255 255 255 255 255 253 254 255 253 254 255 253 254 255 255 255 255 253 253 255 255 254 254 255 254 253 254 255 254 250 253 255 0 6 3 200 217 224 203 223 231 205 225 233 211 231 239 211 233 243 206 230 242 204 228 240 209 237 246 212 241 244 221 248 250 217 234 242 218 235 243 218 232 240 217 231 239 218 229 239 218 229 239 217 228 238 217 228 238 218 229 239 219 230 240 217 228 238 218 227 240 216 223 239 213 220 236 216 222 239 210 214 237 212 230 239 213 231 240 216 233 241 216 233 241 216 233 241 215 232 240 214 231 239 213 233 241 203 224 233 197 220 230 199 222 232 188 216 225 189 217 226 173 204 211 161 192 199 147 178 185 134 167 180 132 162 174 125 149 161 127 145 154 135 147 153 0 1 2 248 249 253 253 254 255 255 254 254 253 254 255 253 254 255 253 254 255 253 254 255 255 255 255 255 255 255 250 251 255 253 253 255 255 255 255 250 251 248 254 255 254 0 4 2 195 210 213 196 213 220 195 213 222 198 217 229 195 215 229 191 214 230 195 221 235 194 218 230 215 242 248 215 241 243 209 227 238 213 231 242 213 228 240 211 226 238 213 227 238 213 227 238 213 227 238 214 228 239 213 227 238 212 230 241 210 228 239 212 227 239 209 222 235 203 217 231 206 217 235 203 214 232 199 221 231 200 221 230 202 223 232 203 223 231 197 217 225 196 216 224 198 220 227 194 217 225 193 216 226 180 207 215 177 205 214 174 202 211 175 206 213 155 186 193 148 179 186 146 180 184 134 164 178 127 151 163 124 145 154 137 149 155 0 5 4 248 251 253 255 255 255 255 253 255 253 253 255 251 253 255 251 253 255 253 254 255 253 254 255 255 255 255 255 255 255 246 247 255 251 252 255 255 255 255 254 255 254 254 255 253 252 255 254 0 5 2 188 200 206 180 193 203 185 200 214 189 209 223 186 208 224 183 206 222 188 212 224 193 216 224 200 225 229 192 216 227 197 221 232 198 220 232 194 216 228 193 215 227 191 213 225 189 211 223 191 215 226 190 214 225 190 218 227 190 218 227 191 215 227 189 213 225 187 209 222 189 211 224 187 207 221 187 213 227 186 211 224 188 213 226 188 212 224 179 203 215 176 200 212 177 205 215 171 200 211 170 199 210 160 190 202 156 186 198 150 182 193 150 182 193 143 174 184 139 170 180 137 167 176 124 148 160 126 148 158 139 156 161 0 4 2 251 253 254 255 255 255 255 253 253 255 254 254 251 252 255 251 253 255 251 253 255 253 254 255 255 255 255 255 255 255 255 255 255 248 250 255 251 252 255 252 252 252 254 255 253 254 255 253 254 255 253 251 254 255 0 3 1 175 185 194 178 192 203 177 193 208 170 187 202 173 193 207 172 194 206 183 206 214 190 211 217 183 211 220 188 216 225 188 212 223 184 208 219 184 208 219 182 206 217 179 207 216 179 207 216 183 214 221 178 212 218 178 212 219 179 213 220 179 213 220 177 208 218 175 206 216 174 205 215 166 192 209 164 190 207 165 191 208 165 195 209 160 190 204 156 186 200 153 183 197 149 179 193 146 176 191 146 176 191 142 172 187 135 165 180 135 165 179 137 167 179 132 162 174 126 155 166 133 151 162 129 146 154 0 4 2 251 254 255 255 255 255 255 254 252 255 254 254 253 253 255 251 252 255 251 253 255 253 254 255 255 255 255 255 255 255 255 255 255 255 255 255 251 252 255 252 252 255 255 255 255 254 255 254 255 254 250 254 255 254 251 255 254 250 252 255 0 3 2 0 3 5 167 179 189 162 176 187 159 177 188 169 189 197 166 186 192 171 192 198 174 197 205 179 202 210 178 201 209 175 196 205 178 199 208 178 201 209 177 200 208 178 205 211 175 204 209 167 200 203 165 199 203 163 197 201 161 195 201 162 196 202 156 187 194 154 185 192 150 176 190 153 178 191 153 178 191 153 178 191 155 179 191 152 176 188 146 174 184 141 170 181 143 168 181 140 165 178 140 164 176 143 167 179 141 165 176 139 162 172 133 154 163 131 151 159 0 5 4 0 4 2 250 252 255 254 255 254 255 255 253 255 254 254 255 252 252 252 252 255 253 253 255 253 254 255 255 255 255 254 255 254 254 255 254 255 255 255 253 254 255 255 254 254 255 254 254 255 255 255 255 255 255 254 255 254 254 255 254 254 255 254 253 254 255 250 252 255 246 250 255 0 0 1 0 3 2 0 4 3 0 6 3 154 173 179 153 172 178 165 182 189 165 182 189 165 179 187 165 179 187 165 179 187 165 179 187 165 182 189 165 184 190 162 184 188 157 183 185 151 176 180 151 179 181 153 181 183 151 177 182 150 176 181 149 175 180 152 172 178 152 172 178 152 173 179 152 173 179 153 175 179 153 175 179 153 175 179 152 173 179 152 173 179 152 171 177 150 169 175 150 167 172 0 7 4 0 6 3 0 4 2 0 4 2 246 250 255 248 251 255 253 254 255 255 255 255 255 254 254 255 254 254 255 254 254 253 253 255 253 253 255 255 255 255 254 255 254 254 255 254 254 255 254 255 255 255 251 253 255 255 254 254 255 254 254 255 255 255 253 254 255 255 255 255 254 255 254 255 255 255 255 255 255 254 254 254 253 254 255 251 253 255 250 252 255 248 252 255 244 250 255 0 7 3 0 8 5 0 0 2 0 0 2 0 0 2 1 0 2 1 0 2 0 0 2 0 0 2 0 3 2 0 6 6 0 6 3 0 7 3 0 8 4 0 8 4 0 8 4 0 7 3 0 7 3 0 7 3 0 7 3 0 7 3 0 7 3 0 7 3 0 7 3 0 7 3 0 7 3 0 8 4 0 6 3 0 6 3 0 4 2 249 253 255 253 255 255 254 255 254 254 255 254 251 254 255 253 254 255 254 255 254 255 255 255 255 254 254 255 254 254 253 253 255 253 253 255 255 255 255 255 255 255 254 255 254 254 255 253 254 255 254 255 255 255 250 252 255 